<?xml version="1.0"?>
<!DOCTYPE svg PUBLIC "-//W3C//DTD SVG 1.0//EN" "http://www.w3.org/TR/2001/REC-SVG-20010904/DTD/svg10.dtd">
<svg xmlns="http://www.w3.org/2000/svg" xmlns:xlink="http://www.w3.org/1999/xlink" xmlns:jfreesvg="http://www.jfree.org/jfreesvg/svg" width="2048" height="514" text-rendering="auto" shape-rendering="auto">
<defs></defs>
<g style="stroke-width: 1.0;stroke: rgb(0,0,0);stroke-opacity: 1.0;stroke-linecap: round;stroke-linejoin: round;; fill: none" transform="matrix(1,0,0,1,0,0)" ><path d="M 1942 438 L 1942 485 L 1944 485 L 1945 486 L 1945 491 L 1946 492 L 1946 500 L 1980 500 L 1980 499 L 1981 498 L 2010 498 L 2010 496 L 2011 495 L 2011 476 L 1994 476 L 1993 475 L 1993 473 L 1994 472 L 2003 472 L 2003 467 L 2004 466 L 2011 466 L 2011 439 L 1995 439 L 1994 440 L 1993 440 L 1992 441 L 1985 441 L 1985 444 L 1984 445 L 1981 445 L 1981 450 L 1980 451 L 1980 468 L 1979 469 L 1975 469 L 1973 467 L 1973 447 L 1972 446 L 1972 438 Z "/></g><g style="stroke-width: 1.0;stroke: rgb(0,0,0);stroke-opacity: 1.0;stroke-linecap: round;stroke-linejoin: round;; fill: none" transform="matrix(1,0,0,1,0,0)" ><path d="M 1473 429 L 1473 430 L 1472 431 L 1469 431 L 1469 496 L 1470 496 L 1471 497 L 1471 498 L 1498 498 L 1499 499 L 1499 500 L 1648 500 L 1648 489 L 1649 488 L 1649 487 L 1651 485 L 1657 485 L 1657 436 L 1639 436 L 1638 435 L 1638 429 L 1612 429 L 1612 450 L 1611 451 L 1609 451 L 1608 450 L 1608 448 L 1606 448 L 1605 447 L 1605 429 Z "/></g><g style="stroke-width: 1.0;stroke: rgb(0,0,0);stroke-opacity: 1.0;stroke-linecap: round;stroke-linejoin: round;; fill: none" transform="matrix(1,0,0,1,0,0)" ><path d="M 1247 429 L 1247 435 L 1246 436 L 1228 436 L 1228 485 L 1235 485 L 1236 486 L 1236 488 L 1237 489 L 1237 500 L 1431 500 L 1431 498 L 1432 497 L 1432 437 L 1415 437 L 1414 438 L 1412 438 L 1411 439 L 1402 439 L 1402 443 L 1401 444 L 1399 444 L 1398 443 L 1398 429 L 1280 429 L 1280 447 L 1279 448 L 1277 448 L 1277 450 L 1276 451 L 1273 451 L 1272 450 L 1272 429 Z "/></g><g style="stroke-width: 1.0;stroke: rgb(0,0,0);stroke-opacity: 1.0;stroke-linecap: round;stroke-linejoin: round;; fill: none" transform="matrix(1,0,0,1,0,0)" ><path d="M 759 429 L 759 430 L 758 431 L 754 431 L 754 497 L 755 498 L 755 500 L 934 500 L 934 489 L 935 488 L 935 486 L 936 485 L 943 485 L 943 436 L 925 436 L 924 435 L 924 430 L 923 429 L 898 429 L 898 450 L 897 451 L 892 451 L 891 450 L 891 429 Z "/></g><g style="stroke-width: 1.0;stroke: rgb(0,0,0);stroke-opacity: 1.0;stroke-linecap: round;stroke-linejoin: round;; fill: none" transform="matrix(1,0,0,1,0,0)" ><path d="M 533 429 L 533 436 L 532 437 L 530 437 L 529 436 L 513 436 L 513 485 L 521 485 L 522 486 L 522 487 L 523 488 L 523 500 L 716 500 L 716 497 L 717 496 L 717 469 L 716 469 L 715 468 L 715 466 L 716 465 L 717 465 L 717 437 L 700 437 L 699 438 L 698 438 L 697 439 L 695 439 L 694 438 L 694 429 L 566 429 L 566 449 L 564 451 L 559 451 L 558 450 L 558 429 Z "/></g><g style="stroke-width: 1.0;stroke: rgb(0,0,0);stroke-opacity: 1.0;stroke-linecap: round;stroke-linejoin: round;; fill: none" transform="matrix(1,0,0,1,0,0)" ><path d="M 29 429 L 28 430 L 28 431 L 27 432 L 27 433 L 26 434 L 14 434 L 14 493 L 20 493 L 21 494 L 21 500 L 221 500 L 221 486 L 222 485 L 229 485 L 229 436 L 211 436 L 209 434 L 209 429 L 160 429 L 160 450 L 159 451 L 157 451 L 156 450 L 156 448 L 154 448 L 153 447 L 153 429 Z "/></g><g style="stroke-width: 1.0;stroke: rgb(0,0,0);stroke-opacity: 1.0;stroke-linecap: round;stroke-linejoin: round;; fill: none" transform="matrix(1,0,0,1,0,0)" ><path d="M 128 373 L 128 418 L 129 419 L 129 425 L 171 425 L 171 413 L 173 411 L 177 411 L 177 404 L 178 403 L 181 403 L 182 404 L 182 411 L 186 411 L 187 412 L 188 412 L 189 413 L 189 425 L 209 425 L 209 413 L 210 412 L 210 405 L 211 404 L 214 404 L 215 405 L 215 417 L 235 417 L 235 394 L 232 394 L 231 393 L 231 373 Z "/></g><g style="stroke-width: 1.0;stroke: rgb(0,0,0);stroke-opacity: 1.0;stroke-linecap: round;stroke-linejoin: round;; fill: none" transform="matrix(1,0,0,1,0,0)" ><path d="M 129 318 L 128 319 L 128 342 L 129 343 L 129 369 L 153 369 L 153 365 L 154 364 L 203 364 L 203 334 L 188 334 L 184 330 L 184 328 L 183 327 L 183 319 L 166 319 L 166 332 L 165 333 L 159 333 L 159 343 L 157 345 L 155 345 L 154 344 L 153 344 L 152 343 L 152 333 L 146 333 L 145 332 L 145 318 Z "/></g><g style="stroke-width: 1.0;stroke: rgb(0,0,0);stroke-opacity: 1.0;stroke-linecap: round;stroke-linejoin: round;; fill: none" transform="matrix(1,0,0,1,0,0)" ><path d="M 21 311 L 20 312 L 18 312 L 18 323 L 17 324 L 14 324 L 14 347 L 20 347 L 21 348 L 21 350 L 20 351 L 14 351 L 14 396 L 22 396 L 23 397 L 23 399 L 22 400 L 22 401 L 21 402 L 21 425 L 60 425 L 60 413 L 61 412 L 63 412 L 64 411 L 78 411 L 80 413 L 80 425 L 97 425 L 97 418 L 98 417 L 124 417 L 124 393 L 122 393 L 121 392 L 121 311 Z "/></g><g style="stroke-width: 1.0;stroke: rgb(0,0,0);stroke-opacity: 1.0;stroke-linecap: round;stroke-linejoin: round;; fill: none" transform="matrix(1,0,0,1,0,0)" ><path d="M 1559 309 L 1559 334 L 1558 335 L 1557 335 L 1557 418 L 1558 419 L 1558 425 L 1599 425 L 1599 413 L 1601 411 L 1614 411 L 1615 412 L 1616 412 L 1617 413 L 1617 425 L 1657 425 L 1657 419 L 1658 418 L 1659 418 L 1659 311 L 1584 311 L 1583 310 L 1583 309 Z "/></g><g style="stroke-width: 1.0;stroke: rgb(0,0,0);stroke-opacity: 1.0;stroke-linecap: round;stroke-linejoin: round;; fill: none" transform="matrix(1,0,0,1,0,0)" ><path d="M 1524 309 L 1524 310 L 1523 311 L 1448 311 L 1448 418 L 1449 419 L 1449 425 L 1489 425 L 1489 413 L 1490 412 L 1491 412 L 1492 411 L 1506 411 L 1507 412 L 1507 425 L 1549 425 L 1549 419 L 1550 418 L 1550 310 L 1548 310 L 1547 309 Z "/></g><g style="stroke-width: 1.0;stroke: rgb(0,0,0);stroke-opacity: 1.0;stroke-linecap: round;stroke-linejoin: round;; fill: none" transform="matrix(1,0,0,1,0,0)" ><path d="M 1337 309 L 1337 333 L 1336 334 L 1335 334 L 1335 418 L 1336 419 L 1336 425 L 1377 425 L 1377 413 L 1379 411 L 1393 411 L 1394 412 L 1395 412 L 1396 413 L 1396 425 L 1436 425 L 1436 419 L 1437 418 L 1437 311 L 1362 311 L 1361 310 L 1361 309 Z "/></g><g style="stroke-width: 1.0;stroke: rgb(0,0,0);stroke-opacity: 1.0;stroke-linecap: round;stroke-linejoin: round;; fill: none" transform="matrix(1,0,0,1,0,0)" ><path d="M 1302 309 L 1302 310 L 1301 311 L 1226 311 L 1226 418 L 1227 419 L 1227 425 L 1267 425 L 1267 413 L 1268 412 L 1269 412 L 1270 411 L 1284 411 L 1286 413 L 1286 425 L 1327 425 L 1327 419 L 1328 418 L 1328 335 L 1327 335 L 1326 334 L 1326 309 Z "/></g><g style="stroke-width: 1.0;stroke: rgb(0,0,0);stroke-opacity: 1.0;stroke-linecap: round;stroke-linejoin: round;; fill: none" transform="matrix(1,0,0,1,0,0)" ><path d="M 845 309 L 844 310 L 842 310 L 842 418 L 843 418 L 844 419 L 844 425 L 885 425 L 885 413 L 887 411 L 900 411 L 901 412 L 902 412 L 903 413 L 903 425 L 924 425 L 924 422 L 925 421 L 943 421 L 943 419 L 944 418 L 944 311 L 896 311 L 896 326 L 895 327 L 892 327 L 891 326 L 891 311 L 869 311 L 868 310 L 868 309 Z "/></g><g style="stroke-width: 1.0;stroke: rgb(0,0,0);stroke-opacity: 1.0;stroke-linecap: round;stroke-linejoin: round;; fill: none" transform="matrix(1,0,0,1,0,0)" ><path d="M 810 309 L 810 310 L 809 311 L 734 311 L 734 418 L 735 419 L 735 421 L 753 421 L 754 422 L 754 425 L 775 425 L 775 413 L 776 412 L 777 412 L 778 411 L 791 411 L 793 413 L 793 425 L 834 425 L 834 419 L 835 418 L 835 335 L 834 335 L 833 334 L 833 309 Z "/></g><g style="stroke-width: 1.0;stroke: rgb(0,0,0);stroke-opacity: 1.0;stroke-linecap: round;stroke-linejoin: round;; fill: none" transform="matrix(1,0,0,1,0,0)" ><path d="M 623 309 L 623 334 L 622 335 L 621 335 L 621 418 L 622 419 L 622 425 L 663 425 L 663 413 L 665 411 L 678 411 L 679 412 L 680 412 L 681 413 L 681 425 L 721 425 L 721 419 L 722 418 L 723 418 L 723 311 L 648 311 L 647 310 L 647 309 Z "/></g><g style="stroke-width: 1.0;stroke: rgb(0,0,0);stroke-opacity: 1.0;stroke-linecap: round;stroke-linejoin: round;; fill: none" transform="matrix(1,0,0,1,0,0)" ><path d="M 588 309 L 588 310 L 587 311 L 512 311 L 512 418 L 513 419 L 513 425 L 553 425 L 553 413 L 554 412 L 555 412 L 556 411 L 570 411 L 571 412 L 571 425 L 613 425 L 613 419 L 614 418 L 614 310 L 612 310 L 611 309 Z "/></g><g style="stroke-width: 1.0;stroke: rgb(0,0,0);stroke-opacity: 1.0;stroke-linecap: round;stroke-linejoin: round;; fill: none" transform="matrix(1,0,0,1,0,0)" ><path d="M 306 282 L 306 309 L 305 310 L 240 310 L 240 426 L 239 427 L 234 427 L 234 451 L 245 451 L 247 453 L 247 467 L 245 469 L 234 469 L 234 493 L 251 493 L 252 492 L 255 492 L 256 493 L 256 499 L 294 499 L 294 494 L 295 493 L 297 493 L 298 494 L 298 499 L 333 499 L 333 493 L 334 492 L 336 492 L 337 493 L 341 493 L 342 494 L 342 496 L 346 496 L 347 497 L 347 499 L 364 499 L 364 493 L 365 492 L 366 492 L 366 468 L 365 468 L 364 467 L 364 462 L 348 462 L 347 461 L 347 460 L 341 460 L 339 458 L 339 445 L 341 443 L 347 443 L 347 426 L 341 426 L 339 424 L 339 411 L 341 409 L 347 409 L 347 377 L 332 377 L 331 376 L 331 357 L 332 356 L 344 356 L 344 334 L 328 334 L 327 335 L 324 335 L 322 333 L 322 330 L 324 328 L 344 328 L 344 312 L 334 312 L 333 311 L 333 308 L 334 307 L 344 307 L 344 282 Z "/></g><g style="stroke-width: 1.0;stroke: rgb(0,0,0);stroke-opacity: 1.0;stroke-linecap: round;stroke-linejoin: round;; fill: none" transform="matrix(1,0,0,1,0,0)" ><path d="M 1962 276 L 1961 277 L 1939 277 L 1939 299 L 1940 300 L 1940 309 L 1939 310 L 1939 418 L 1941 418 L 1942 419 L 1942 425 L 1981 425 L 1981 412 L 1982 411 L 1997 411 L 1999 413 L 1999 425 L 2039 425 L 2039 276 Z "/></g><g style="stroke-width: 1.0;stroke: rgb(0,0,0);stroke-opacity: 1.0;stroke-linecap: round;stroke-linejoin: round;; fill: none" transform="matrix(1,0,0,1,0,0)" ><path d="M 129 243 L 129 268 L 128 269 L 128 293 L 145 293 L 145 279 L 146 278 L 152 278 L 152 269 L 154 267 L 158 267 L 159 268 L 159 278 L 165 278 L 166 279 L 166 293 L 183 293 L 183 284 L 184 283 L 184 282 L 185 281 L 185 280 L 187 278 L 188 278 L 189 277 L 203 277 L 203 247 L 191 247 L 190 246 L 190 244 L 164 244 L 164 246 L 163 247 L 154 247 L 153 246 L 153 243 Z "/></g><g style="stroke-width: 1.0;stroke: rgb(0,0,0);stroke-opacity: 1.0;stroke-linecap: round;stroke-linejoin: round;; fill: none" transform="matrix(1,0,0,1,0,0)" ><path d="M 1466 227 L 1466 236 L 1465 237 L 1465 239 L 1461 243 L 1448 243 L 1448 287 L 1472 287 L 1472 280 L 1473 279 L 1477 279 L 1477 275 L 1478 274 L 1515 274 L 1515 248 L 1514 248 L 1513 247 L 1513 242 L 1484 242 L 1483 241 L 1483 227 Z "/></g><g style="stroke-width: 1.0;stroke: rgb(0,0,0);stroke-opacity: 1.0;stroke-linecap: round;stroke-linejoin: round;; fill: none" transform="matrix(1,0,0,1,0,0)" ><path d="M 1402 227 L 1402 241 L 1401 242 L 1372 242 L 1372 247 L 1371 248 L 1370 248 L 1370 274 L 1407 274 L 1408 275 L 1408 279 L 1412 279 L 1413 280 L 1413 287 L 1437 287 L 1437 243 L 1424 243 L 1420 239 L 1420 237 L 1419 236 L 1419 227 Z "/></g><g style="stroke-width: 1.0;stroke: rgb(0,0,0);stroke-opacity: 1.0;stroke-linecap: round;stroke-linejoin: round;; fill: none" transform="matrix(1,0,0,1,0,0)" ><path d="M 751 227 L 751 238 L 750 239 L 749 239 L 749 241 L 747 243 L 734 243 L 734 287 L 758 287 L 758 279 L 759 278 L 762 278 L 762 275 L 763 274 L 800 274 L 800 248 L 799 247 L 799 242 L 769 242 L 768 241 L 768 227 Z "/></g><g style="stroke-width: 1.0;stroke: rgb(0,0,0);stroke-opacity: 1.0;stroke-linecap: round;stroke-linejoin: round;; fill: none" transform="matrix(1,0,0,1,0,0)" ><path d="M 688 227 L 688 241 L 687 242 L 657 242 L 657 247 L 656 248 L 656 274 L 693 274 L 694 275 L 698 275 L 699 276 L 699 287 L 723 287 L 723 243 L 710 243 L 709 242 L 709 240 L 707 240 L 706 239 L 706 238 L 705 237 L 705 227 Z "/></g><g style="stroke-width: 1.0;stroke: rgb(0,0,0);stroke-opacity: 1.0;stroke-linecap: round;stroke-linejoin: round;; fill: none" transform="matrix(1,0,0,1,0,0)" ><path d="M 1523 221 L 1523 247 L 1522 248 L 1519 248 L 1519 270 L 1522 270 L 1523 271 L 1523 304 L 1524 305 L 1548 305 L 1549 304 L 1549 302 L 1550 301 L 1550 286 L 1552 284 L 1555 284 L 1557 286 L 1557 302 L 1558 303 L 1558 304 L 1559 305 L 1583 305 L 1584 304 L 1624 304 L 1624 274 L 1585 274 L 1584 273 L 1584 221 L 1558 221 L 1558 223 L 1557 224 L 1557 239 L 1555 241 L 1551 241 L 1550 240 L 1550 224 L 1549 223 L 1549 221 Z "/></g><g style="stroke-width: 1.0;stroke: rgb(0,0,0);stroke-opacity: 1.0;stroke-linecap: round;stroke-linejoin: round;; fill: none" transform="matrix(1,0,0,1,0,0)" ><path d="M 1301 221 L 1301 273 L 1300 274 L 1261 274 L 1261 304 L 1301 304 L 1302 305 L 1326 305 L 1327 304 L 1327 302 L 1328 301 L 1328 286 L 1330 284 L 1333 284 L 1335 286 L 1335 301 L 1336 302 L 1336 304 L 1337 305 L 1361 305 L 1362 304 L 1362 271 L 1363 270 L 1366 270 L 1366 248 L 1363 248 L 1362 247 L 1362 221 L 1336 221 L 1336 223 L 1335 224 L 1335 239 L 1333 241 L 1330 241 L 1328 239 L 1328 224 L 1327 223 L 1327 221 Z "/></g><g style="stroke-width: 1.0;stroke: rgb(0,0,0);stroke-opacity: 1.0;stroke-linecap: round;stroke-linejoin: round;; fill: none" transform="matrix(1,0,0,1,0,0)" ><path d="M 809 221 L 809 247 L 808 248 L 805 248 L 805 270 L 808 270 L 809 271 L 809 305 L 834 305 L 834 303 L 835 302 L 835 286 L 837 284 L 841 284 L 842 285 L 842 301 L 844 303 L 844 305 L 869 305 L 870 304 L 910 304 L 910 274 L 871 274 L 869 272 L 869 221 L 844 221 L 844 222 L 843 223 L 843 239 L 841 241 L 837 241 L 835 239 L 835 224 L 834 223 L 834 221 Z "/></g><g style="stroke-width: 1.0;stroke: rgb(0,0,0);stroke-opacity: 1.0;stroke-linecap: round;stroke-linejoin: round;; fill: none" transform="matrix(1,0,0,1,0,0)" ><path d="M 587 221 L 587 273 L 586 274 L 546 274 L 546 304 L 587 304 L 588 305 L 612 305 L 613 304 L 613 302 L 614 301 L 614 286 L 616 284 L 619 284 L 621 286 L 621 302 L 622 303 L 622 304 L 623 305 L 647 305 L 648 304 L 648 273 L 647 272 L 647 270 L 648 269 L 651 269 L 651 248 L 648 248 L 647 247 L 647 245 L 648 244 L 648 221 L 622 221 L 622 223 L 621 224 L 621 239 L 619 241 L 615 241 L 614 240 L 614 224 L 613 223 L 613 221 Z "/></g><g style="stroke-width: 1.0;stroke: rgb(0,0,0);stroke-opacity: 1.0;stroke-linecap: round;stroke-linejoin: round;; fill: none" transform="matrix(1,0,0,1,0,0)" ><path d="M 128 192 L 128 238 L 231 238 L 231 219 L 232 218 L 235 218 L 235 195 L 232 195 L 231 194 L 231 192 L 188 192 L 188 198 L 186 200 L 182 200 L 182 208 L 181 209 L 178 209 L 177 208 L 177 200 L 172 200 L 171 199 L 171 192 Z "/></g><g style="stroke-width: 1.0;stroke: rgb(0,0,0);stroke-opacity: 1.0;stroke-linecap: round;stroke-linejoin: round;; fill: none" transform="matrix(1,0,0,1,0,0)" ><path d="M 22 187 L 22 211 L 23 212 L 23 215 L 22 216 L 14 216 L 14 259 L 22 259 L 23 260 L 23 262 L 22 263 L 22 265 L 21 266 L 14 266 L 14 299 L 20 299 L 21 300 L 121 300 L 121 218 L 122 217 L 124 217 L 124 194 L 98 194 L 97 193 L 87 193 L 86 192 L 86 187 L 62 187 L 62 199 L 61 200 L 46 200 L 44 198 L 44 187 Z "/></g><g style="stroke-width: 1.0;stroke: rgb(0,0,0);stroke-opacity: 1.0;stroke-linecap: round;stroke-linejoin: round;; fill: none" transform="matrix(1,0,0,1,0,0)" ><path d="M 1776 177 L 1776 232 L 1775 233 L 1769 233 L 1768 232 L 1768 230 L 1735 230 L 1735 253 L 1736 254 L 1736 270 L 1863 270 L 1863 254 L 1864 253 L 1864 216 L 1831 216 L 1831 232 L 1830 233 L 1825 233 L 1824 232 L 1824 177 Z "/></g><g style="stroke-width: 1.0;stroke: rgb(0,0,0);stroke-opacity: 1.0;stroke-linecap: round;stroke-linejoin: round;; fill: none" transform="matrix(1,0,0,1,0,0)" ><path d="M 1061 177 L 1061 232 L 1060 233 L 1055 233 L 1054 232 L 1054 230 L 1021 230 L 1021 253 L 1022 254 L 1022 270 L 1149 270 L 1149 254 L 1150 253 L 1150 216 L 1117 216 L 1117 241 L 1116 242 L 1114 242 L 1113 241 L 1113 233 L 1110 233 L 1109 232 L 1109 177 Z "/></g><g style="stroke-width: 1.0;stroke: rgb(0,0,0);stroke-opacity: 1.0;stroke-linecap: round;stroke-linejoin: round;; fill: none" transform="matrix(1,0,0,1,0,0)" ><path d="M 347 177 L 347 229 L 352 229 L 353 230 L 353 232 L 352 233 L 341 233 L 340 232 L 340 230 L 306 230 L 306 253 L 307 253 L 308 254 L 308 270 L 434 270 L 434 255 L 435 254 L 436 254 L 436 216 L 402 216 L 402 232 L 401 233 L 396 233 L 395 232 L 395 222 L 387 222 L 386 221 L 386 177 Z "/></g><g style="stroke-width: 1.0;stroke: rgb(0,0,0);stroke-opacity: 1.0;stroke-linecap: round;stroke-linejoin: round;; fill: none" transform="matrix(1,0,0,1,0,0)" ><path d="M 1876 88 L 1876 89 L 1875 90 L 1873 90 L 1873 113 L 1874 114 L 1875 114 L 1876 115 L 1876 239 L 1877 240 L 1877 272 L 1876 273 L 1876 309 L 1875 310 L 1851 310 L 1851 316 L 1850 317 L 1847 317 L 1846 316 L 1846 310 L 1824 310 L 1824 347 L 1830 347 L 1831 348 L 1831 362 L 1829 364 L 1824 364 L 1823 365 L 1807 365 L 1807 381 L 1823 381 L 1824 382 L 1824 384 L 1830 384 L 1831 385 L 1831 400 L 1830 401 L 1824 401 L 1823 402 L 1807 402 L 1807 492 L 1837 492 L 1838 493 L 1838 499 L 1872 499 L 1872 491 L 1873 490 L 1876 490 L 1877 491 L 1877 499 L 1914 499 L 1914 493 L 1915 492 L 1937 492 L 1937 468 L 1925 468 L 1924 467 L 1924 453 L 1925 452 L 1937 452 L 1937 436 L 1931 436 L 1930 435 L 1930 420 L 1932 418 L 1932 310 L 1930 308 L 1930 303 L 1932 301 L 1932 224 L 1930 222 L 1930 217 L 1932 215 L 1938 215 L 1939 216 L 2039 216 L 2039 88 L 1998 88 L 1998 100 L 1996 102 L 1983 102 L 1981 100 L 1981 88 L 1940 88 L 1940 94 L 1939 95 L 1931 95 L 1930 94 L 1930 88 Z "/></g><g style="stroke-width: 1.0;stroke: rgb(0,0,0);stroke-opacity: 1.0;stroke-linecap: round;stroke-linejoin: round;; fill: none" transform="matrix(1,0,0,1,0,0)" ><path d="M 1566 88 L 1566 113 L 1565 114 L 1557 114 L 1557 190 L 1558 190 L 1559 191 L 1559 216 L 1583 216 L 1583 215 L 1584 214 L 1687 214 L 1688 215 L 1688 224 L 1687 225 L 1670 225 L 1670 253 L 1687 253 L 1688 254 L 1688 273 L 1687 274 L 1631 274 L 1631 304 L 1660 304 L 1660 302 L 1661 301 L 1667 301 L 1669 303 L 1669 309 L 1668 310 L 1666 310 L 1666 418 L 1667 418 L 1669 420 L 1669 435 L 1668 436 L 1662 436 L 1662 452 L 1674 452 L 1675 453 L 1675 467 L 1674 468 L 1662 468 L 1662 492 L 1684 492 L 1685 493 L 1685 499 L 1722 499 L 1722 492 L 1723 491 L 1727 491 L 1728 492 L 1728 499 L 1761 499 L 1761 493 L 1762 492 L 1792 492 L 1792 402 L 1777 402 L 1776 401 L 1769 401 L 1768 400 L 1768 385 L 1769 384 L 1776 384 L 1776 382 L 1777 381 L 1792 381 L 1792 365 L 1777 365 L 1776 364 L 1770 364 L 1768 362 L 1768 348 L 1769 347 L 1776 347 L 1776 310 L 1753 310 L 1753 315 L 1752 316 L 1750 316 L 1749 315 L 1749 310 L 1732 310 L 1732 329 L 1731 330 L 1729 330 L 1728 329 L 1728 310 L 1724 310 L 1723 309 L 1723 291 L 1704 291 L 1702 289 L 1702 285 L 1703 284 L 1723 284 L 1723 243 L 1703 243 L 1702 242 L 1702 235 L 1703 234 L 1723 234 L 1723 88 L 1669 88 L 1669 94 L 1668 95 L 1661 95 L 1660 94 L 1660 92 L 1659 91 L 1659 88 L 1618 88 L 1618 100 L 1616 102 L 1603 102 L 1601 100 L 1601 88 Z "/></g><g style="stroke-width: 1.0;stroke: rgb(0,0,0);stroke-opacity: 1.0;stroke-linecap: round;stroke-linejoin: round;; fill: none" transform="matrix(1,0,0,1,0,0)" ><path d="M 1159 88 L 1159 114 L 1160 114 L 1162 116 L 1162 234 L 1182 234 L 1183 235 L 1183 242 L 1182 243 L 1162 243 L 1162 284 L 1182 284 L 1183 285 L 1183 289 L 1181 291 L 1162 291 L 1162 309 L 1161 310 L 1136 310 L 1136 315 L 1135 316 L 1133 316 L 1132 315 L 1132 310 L 1109 310 L 1109 347 L 1116 347 L 1117 348 L 1117 362 L 1115 364 L 1109 364 L 1108 365 L 1106 365 L 1106 381 L 1108 381 L 1109 382 L 1109 384 L 1116 384 L 1117 385 L 1117 399 L 1115 401 L 1109 401 L 1108 402 L 1106 402 L 1106 405 L 1105 406 L 1093 406 L 1093 492 L 1123 492 L 1124 493 L 1124 499 L 1158 499 L 1158 493 L 1159 492 L 1162 492 L 1163 493 L 1163 499 L 1200 499 L 1200 493 L 1201 492 L 1204 492 L 1205 493 L 1222 493 L 1223 492 L 1223 468 L 1211 468 L 1210 467 L 1210 453 L 1211 452 L 1223 452 L 1223 436 L 1217 436 L 1216 435 L 1216 419 L 1217 418 L 1219 418 L 1219 310 L 1217 310 L 1216 309 L 1216 303 L 1218 301 L 1224 301 L 1225 302 L 1225 304 L 1254 304 L 1254 274 L 1198 274 L 1197 273 L 1197 254 L 1198 253 L 1215 253 L 1215 225 L 1198 225 L 1197 224 L 1197 215 L 1198 214 L 1301 214 L 1302 215 L 1302 216 L 1326 216 L 1326 191 L 1327 190 L 1328 190 L 1328 95 L 1326 95 L 1325 94 L 1325 88 L 1296 88 L 1295 89 L 1284 89 L 1284 100 L 1282 102 L 1268 102 L 1267 101 L 1267 88 L 1225 88 L 1225 94 L 1224 95 L 1217 95 L 1216 94 L 1216 88 Z "/></g><g style="stroke-width: 1.0;stroke: rgb(0,0,0);stroke-opacity: 1.0;stroke-linecap: round;stroke-linejoin: round;; fill: none" transform="matrix(1,0,0,1,0,0)" ><path d="M 846 88 L 846 94 L 845 95 L 842 95 L 842 215 L 844 215 L 845 216 L 868 216 L 868 215 L 869 214 L 973 214 L 974 215 L 974 224 L 973 225 L 955 225 L 955 252 L 956 253 L 973 253 L 974 254 L 974 273 L 973 274 L 917 274 L 917 304 L 945 304 L 945 303 L 947 301 L 953 301 L 954 302 L 954 309 L 953 310 L 951 310 L 951 418 L 953 418 L 954 419 L 954 426 L 953 427 L 948 427 L 948 452 L 960 452 L 961 453 L 961 467 L 959 469 L 948 469 L 948 493 L 966 493 L 968 491 L 970 491 L 971 492 L 971 499 L 1008 499 L 1008 492 L 1009 491 L 1012 491 L 1013 492 L 1013 499 L 1047 499 L 1047 493 L 1048 492 L 1078 492 L 1078 403 L 1062 403 L 1061 402 L 1061 401 L 1055 401 L 1054 400 L 1054 385 L 1055 384 L 1061 384 L 1061 363 L 1055 363 L 1054 362 L 1054 348 L 1055 347 L 1061 347 L 1061 310 L 1039 310 L 1039 316 L 1038 317 L 1035 317 L 1034 316 L 1034 310 L 1010 310 L 1009 309 L 1009 291 L 989 291 L 988 290 L 988 285 L 989 284 L 1008 284 L 1008 243 L 989 243 L 988 242 L 988 235 L 989 234 L 1009 234 L 1009 88 L 954 88 L 954 94 L 953 95 L 946 95 L 945 94 L 945 88 L 904 88 L 904 100 L 902 102 L 889 102 L 887 100 L 887 95 L 875 95 L 874 94 L 874 88 Z "/></g><g style="stroke-width: 1.0;stroke: rgb(0,0,0);stroke-opacity: 1.0;stroke-linecap: round;stroke-linejoin: round;; fill: none" transform="matrix(1,0,0,1,0,0)" ><path d="M 445 88 L 445 114 L 446 114 L 448 116 L 448 234 L 467 234 L 468 235 L 468 242 L 467 243 L 448 243 L 448 284 L 467 284 L 468 285 L 468 290 L 467 291 L 448 291 L 448 309 L 447 310 L 422 310 L 422 316 L 421 317 L 418 317 L 417 316 L 417 310 L 395 310 L 395 347 L 401 347 L 402 348 L 402 363 L 401 364 L 395 364 L 394 365 L 379 365 L 379 381 L 394 381 L 395 382 L 395 384 L 401 384 L 402 385 L 402 400 L 401 401 L 395 401 L 394 402 L 379 402 L 379 492 L 408 492 L 409 493 L 409 499 L 443 499 L 443 493 L 444 492 L 448 492 L 449 493 L 449 499 L 486 499 L 486 493 L 487 492 L 490 492 L 491 493 L 508 493 L 508 469 L 497 469 L 495 467 L 495 453 L 497 451 L 508 451 L 508 427 L 503 427 L 502 426 L 502 419 L 503 418 L 505 418 L 505 310 L 503 310 L 502 309 L 502 302 L 503 301 L 510 301 L 511 302 L 511 304 L 539 304 L 539 274 L 483 274 L 482 273 L 482 253 L 483 252 L 501 252 L 501 225 L 483 225 L 482 224 L 482 216 L 484 214 L 587 214 L 588 215 L 588 216 L 611 216 L 612 215 L 614 215 L 614 95 L 612 95 L 611 94 L 611 88 L 583 88 L 583 95 L 582 96 L 569 96 L 569 101 L 568 102 L 554 102 L 552 100 L 552 88 L 511 88 L 511 94 L 510 95 L 503 95 L 502 94 L 502 88 Z "/></g><g style="stroke-width: 1.0;stroke: rgb(0,0,0);stroke-opacity: 1.0;stroke-linecap: round;stroke-linejoin: round;; fill: none" transform="matrix(1,0,0,1,0,0)" ><path d="M 1737 14 L 1737 19 L 1736 20 L 1734 20 L 1734 114 L 1843 114 L 1844 113 L 1869 113 L 1869 90 L 1865 90 L 1864 89 L 1864 87 L 1865 86 L 1869 86 L 1869 62 L 1858 62 L 1856 60 L 1856 46 L 1857 45 L 1857 44 L 1858 43 L 1869 43 L 1869 22 L 1843 22 L 1842 21 L 1842 14 L 1802 14 L 1802 22 L 1801 23 L 1798 23 L 1797 22 L 1797 14 L 1766 14 L 1766 20 L 1765 21 L 1763 21 L 1762 20 L 1759 20 L 1758 19 L 1758 17 L 1755 17 L 1754 16 L 1754 14 Z "/></g><g style="stroke-width: 1.0;stroke: rgb(0,0,0);stroke-opacity: 1.0;stroke-linecap: round;stroke-linejoin: round;; fill: none" transform="matrix(1,0,0,1,0,0)" ><path d="M 1451 14 L 1451 19 L 1450 20 L 1448 20 L 1448 37 L 1452 37 L 1453 38 L 1453 40 L 1452 41 L 1448 41 L 1448 214 L 1523 214 L 1524 215 L 1524 216 L 1547 216 L 1547 215 L 1548 214 L 1550 214 L 1550 95 L 1549 94 L 1549 87 L 1550 86 L 1555 86 L 1555 62 L 1544 62 L 1542 60 L 1542 46 L 1543 45 L 1543 44 L 1544 43 L 1555 43 L 1555 22 L 1528 22 L 1527 21 L 1527 14 L 1479 14 L 1479 20 L 1478 21 L 1475 21 L 1474 20 L 1474 14 Z "/></g><g style="stroke-width: 1.0;stroke: rgb(0,0,0);stroke-opacity: 1.0;stroke-linecap: round;stroke-linejoin: round;; fill: none" transform="matrix(1,0,0,1,0,0)" ><path d="M 1358 14 L 1358 21 L 1356 23 L 1354 23 L 1353 22 L 1330 22 L 1330 43 L 1341 43 L 1342 44 L 1342 45 L 1343 46 L 1343 60 L 1341 62 L 1330 62 L 1330 86 L 1335 86 L 1336 87 L 1336 94 L 1335 95 L 1335 191 L 1336 191 L 1337 192 L 1337 216 L 1361 216 L 1361 215 L 1362 214 L 1437 214 L 1437 41 L 1432 41 L 1431 40 L 1431 38 L 1432 37 L 1437 37 L 1437 20 L 1435 20 L 1434 19 L 1434 14 L 1411 14 L 1411 20 L 1410 21 L 1407 21 L 1406 20 L 1406 14 Z "/></g><g style="stroke-width: 1.0;stroke: rgb(0,0,0);stroke-opacity: 1.0;stroke-linecap: round;stroke-linejoin: round;; fill: none" transform="matrix(1,0,0,1,0,0)" ><path d="M 1022 14 L 1022 19 L 1021 20 L 1020 20 L 1020 114 L 1129 114 L 1130 113 L 1155 113 L 1155 90 L 1151 90 L 1150 89 L 1150 87 L 1151 86 L 1154 86 L 1155 85 L 1155 61 L 1143 61 L 1142 60 L 1142 46 L 1143 45 L 1143 44 L 1144 43 L 1155 43 L 1155 22 L 1131 22 L 1131 23 L 1130 24 L 1128 24 L 1127 23 L 1127 14 L 1088 14 L 1088 20 L 1087 21 L 1083 21 L 1082 20 L 1082 14 L 1052 14 L 1052 20 L 1051 21 L 1048 21 L 1047 20 L 1044 20 L 1043 19 L 1043 17 L 1040 17 L 1039 16 L 1039 14 Z "/></g><g style="stroke-width: 1.0;stroke: rgb(0,0,0);stroke-opacity: 1.0;stroke-linecap: round;stroke-linejoin: round;; fill: none" transform="matrix(1,0,0,1,0,0)" ><path d="M 737 14 L 737 37 L 738 37 L 739 38 L 739 40 L 738 41 L 734 41 L 734 214 L 809 214 L 810 215 L 810 216 L 833 216 L 833 191 L 834 190 L 835 190 L 835 94 L 834 93 L 834 86 L 835 85 L 837 85 L 837 61 L 829 61 L 828 60 L 828 46 L 829 45 L 829 44 L 830 43 L 837 43 L 837 22 L 813 22 L 812 21 L 812 14 L 765 14 L 765 19 L 764 20 L 761 20 L 760 19 L 760 14 Z "/></g><g style="stroke-width: 1.0;stroke: rgb(0,0,0);stroke-opacity: 1.0;stroke-linecap: round;stroke-linejoin: round;; fill: none" transform="matrix(1,0,0,1,0,0)" ><path d="M 644 14 L 644 21 L 643 22 L 616 22 L 616 43 L 626 43 L 627 44 L 627 45 L 628 46 L 628 60 L 627 61 L 616 61 L 616 86 L 621 86 L 622 87 L 622 94 L 621 95 L 621 190 L 622 190 L 623 191 L 623 216 L 647 216 L 647 215 L 648 214 L 723 214 L 723 20 L 721 20 L 720 19 L 720 14 L 696 14 L 696 19 L 695 20 L 692 20 L 691 19 L 691 14 Z "/></g><g style="stroke-width: 1.0;stroke: rgb(0,0,0);stroke-opacity: 1.0;stroke-linecap: round;stroke-linejoin: round;; fill: none" transform="matrix(1,0,0,1,0,0)" ><path d="M 306 14 L 306 114 L 414 114 L 415 113 L 440 113 L 440 90 L 436 90 L 435 89 L 435 87 L 436 86 L 440 86 L 440 62 L 429 62 L 428 61 L 428 44 L 429 43 L 440 43 L 440 22 L 417 22 L 417 23 L 416 24 L 414 24 L 413 23 L 413 14 L 373 14 L 373 19 L 372 20 L 370 20 L 369 19 L 369 14 L 338 14 L 338 20 L 337 21 L 334 21 L 333 20 L 330 20 L 329 19 L 329 17 L 326 17 L 325 16 L 325 14 Z "/></g><g style="stroke-width: 1.0;stroke: rgb(0,0,0);stroke-opacity: 1.0;stroke-linecap: round;stroke-linejoin: round;; fill: none" transform="matrix(1,0,0,1,0,0)" ><path d="M 116 14 L 116 21 L 115 22 L 113 22 L 112 21 L 111 21 L 110 20 L 89 20 L 89 73 L 94 73 L 95 74 L 95 82 L 94 83 L 89 83 L 89 124 L 101 124 L 102 125 L 102 140 L 101 141 L 89 141 L 89 176 L 95 176 L 96 177 L 96 185 L 231 185 L 232 184 L 239 184 L 240 185 L 240 203 L 267 203 L 267 181 L 268 180 L 272 180 L 273 181 L 273 183 L 272 184 L 272 213 L 295 213 L 295 166 L 277 166 L 276 165 L 276 162 L 277 161 L 293 161 L 293 145 L 277 145 L 276 144 L 276 143 L 270 143 L 269 142 L 269 127 L 270 126 L 276 126 L 276 125 L 277 124 L 293 124 L 293 108 L 277 108 L 276 107 L 276 106 L 270 106 L 269 105 L 269 90 L 270 89 L 276 89 L 276 88 L 277 87 L 293 87 L 293 53 L 277 53 L 276 52 L 276 50 L 277 49 L 295 49 L 295 20 L 278 20 L 277 21 L 276 21 L 275 22 L 273 22 L 272 21 L 272 14 L 242 14 L 242 19 L 241 20 L 216 20 L 215 21 L 214 21 L 213 22 L 211 22 L 210 21 L 210 14 L 166 14 L 166 21 L 165 22 L 162 22 L 161 21 L 161 14 Z "/></g><g style="stroke-width: 1.0;stroke: rgb(0,0,0);stroke-opacity: 1.0;stroke-linecap: round;stroke-linejoin: round;; fill: none" transform="matrix(1,0,0,1,0,0)" ><path d="M 21 14 L 21 19 L 20 20 L 15 20 L 15 178 L 16 179 L 16 182 L 45 182 L 45 177 L 46 176 L 82 176 L 82 174 L 83 173 L 84 173 L 84 105 L 66 105 L 65 104 L 63 104 L 62 103 L 46 103 L 45 102 L 45 97 L 46 96 L 62 96 L 63 95 L 67 95 L 68 96 L 84 96 L 84 22 L 83 22 L 82 21 L 82 14 Z "/></g><g style="stroke-width: 1.0;stroke: rgb(0,0,0);stroke-opacity: 1.0;stroke-linecap: round;stroke-linejoin: round;; fill: none" transform="matrix(1,0,0,1,0,0)" ><path d="M 1877 12 L 1876 13 L 1874 13 L 1874 45 L 1879 45 L 1880 46 L 1880 82 L 1881 82 L 1882 83 L 1882 84 L 1953 84 L 1953 46 L 1955 44 L 1958 44 L 1960 46 L 1960 84 L 2031 84 L 2031 83 L 2032 82 L 2033 82 L 2033 12 Z "/></g><g style="stroke-width: 1.0;stroke: rgb(0,0,0);stroke-opacity: 1.0;stroke-linecap: round;stroke-linejoin: round;; fill: none" transform="matrix(1,0,0,1,0,0)" ><path d="M 1564 12 L 1564 13 L 1563 14 L 1560 14 L 1560 45 L 1565 45 L 1566 46 L 1566 82 L 1567 82 L 1568 83 L 1568 84 L 1639 84 L 1639 46 L 1641 44 L 1644 44 L 1646 46 L 1646 84 L 1717 84 L 1717 83 L 1718 82 L 1719 82 L 1719 12 Z "/></g><g style="stroke-width: 1.0;stroke: rgb(0,0,0);stroke-opacity: 1.0;stroke-linecap: round;stroke-linejoin: round;; fill: none" transform="matrix(1,0,0,1,0,0)" ><path d="M 1163 12 L 1162 13 L 1160 13 L 1160 45 L 1165 45 L 1166 46 L 1166 82 L 1167 82 L 1168 83 L 1168 84 L 1239 84 L 1239 68 L 1238 67 L 1238 63 L 1239 62 L 1239 46 L 1241 44 L 1244 44 L 1246 46 L 1246 84 L 1317 84 L 1317 82 L 1318 81 L 1318 47 L 1320 45 L 1325 45 L 1325 14 L 1322 14 L 1321 13 L 1321 12 Z "/></g><g style="stroke-width: 1.0;stroke: rgb(0,0,0);stroke-opacity: 1.0;stroke-linecap: round;stroke-linejoin: round;; fill: none" transform="matrix(1,0,0,1,0,0)" ><path d="M 849 12 L 848 13 L 846 13 L 846 45 L 851 45 L 852 46 L 852 82 L 853 82 L 854 83 L 854 84 L 925 84 L 925 46 L 927 44 L 930 44 L 932 46 L 932 84 L 1003 84 L 1003 82 L 1004 81 L 1005 81 L 1005 17 L 1004 16 L 1004 12 Z "/></g><g style="stroke-width: 1.0;stroke: rgb(0,0,0);stroke-opacity: 1.0;stroke-linecap: round;stroke-linejoin: round;; fill: none" transform="matrix(1,0,0,1,0,0)" ><path d="M 449 12 L 448 13 L 446 13 L 446 45 L 451 45 L 452 46 L 452 81 L 453 82 L 453 84 L 524 84 L 524 47 L 525 46 L 525 45 L 526 44 L 529 44 L 532 47 L 532 84 L 603 84 L 603 82 L 604 81 L 604 46 L 605 45 L 610 45 L 610 13 L 608 13 L 607 12 Z "/></g></svg>

